# xmcd
#
# Track frame offsets: 
#        150
#        16070
#        36848
#        50842
#        70816
#        85511
#        101637
#        115969
#        130778
#        147930
#        160917
#
# Disc length: 2459 seconds
#
# Revision: 0
# Processed by: cddbd v1.5.2PL0 Copyright (c) Steve Scherf et al.
# Submitted via: ExactAudioCopyFreeDBPlugin 1.0
#
DISCID=8e09990b
DTITLE=Tessy Lou and the Shotgun Stars - Leaving Montana
DYEAR=2012
DGENRE=Country
TTITLE0=Cowboy Way
TTITLE1=Don't Ever Let Go of Me
TTITLE2=Lordy, Lordy
TTITLE3=Leaving Montana
TTITLE4=Beer, Boobs, and Whiskey
TTITLE5=Next Girlfriend
TTITLE6=Walking the Shadows Alone
TTITLE7=Whiskey under the Bridge
TTITLE8=Unwritten Song
TTITLE9=Nowhere Somewhere Else
TTITLE10=Love's Dance
EXTD=
EXTT0=
EXTT1=
EXTT2=
EXTT3=
EXTT4=
EXTT5=
EXTT6=
EXTT7=
EXTT8=
EXTT9=
EXTT10=
PLAYORDER=
